#!OML:ASF H:\Male1\Project 1\Capture day 1\Session 1\Male1.ASF
:FULLY-SPECIFIED
:DEGREES
402
root 23.2824 14.7345 1.30202 184.25 15.1904 -178.162
lowerback 23.9033 0.204615 -2.07882
upperback 10.8899 2.03059 -2.3421
thorax -1.27879 1.94106 -1.84463
lowerneck -4.73884 4.42205 5.15796
upperneck -7.65521 5.89135 -5.15503
head -1.2886 3.06349 -2.49356
rclavicle -2.90226e-014 0
rhumerus -0.618467 -7.17723 -49.106
rradius 117.438
rwrist -17.7388
rhand -38.3675 -2.42438
rfingers 7.12502
rthumb -11.3937 -32.0948
lclavicle -2.90226e-014 0
lhumerus -1.74543 12.6844 34.6253
lradius 114.64
lwrist -9.794
lhand -36.5332 18.1025
lfingers 7.12502
lthumb -9.62424 47.8627
rfemur -34.6966 -10.9131 26.9342
rtibia 58.4921
rfoot -20.9006 -10.6595
rtoes -37.743
lfemur -31.3307 -17.6251 -18.8433
ltibia 49.6893
lfoot -22.4177 6.74267
ltoes -20.326
403
root 23.3737 14.6718 1.30573 184.151 15.5899 -178.074
lowerback 24.1654 0.331042 -2.30854
upperback 10.8474 2.13854 -2.48858
thorax -1.44693 1.99481 -1.91132
lowerneck -5.07535 4.30757 4.894
upperneck -6.90826 5.73109 -4.6146
head -1.02321 2.96272 -2.24281
rclavicle 6.32135e-014 -3.10104e-014
rhumerus -0.695181 -7.44304 -49.1445
rradius 117.65
rwrist -17.6767
rhand -38.386 -2.42451
rfingers 7.12502
rthumb -11.4116 -32.094
lclavicle 6.32135e-014 -3.10104e-014
lhumerus -1.55199 13.0689 34.4345
lradius 114.773
lwrist -9.79252
lhand -36.6354 18.3452
lfingers 7.12502
lthumb -9.72288 48.1008
rfemur -36.3891 -11.4956 26.7704
rtibia 61.5546
rfoot -19.8377 -8.59326
rtoes -39.5369
lfemur -31.7003 -17.2049 -18.4349
ltibia 50.8933
lfoot -22.6431 7.21947
ltoes -22.6543
404
root 23.4674 14.608 1.30758 184.005 15.8832 -177.996
lowerback 24.4362 0.406953 -2.48064
upperback 10.8397 2.20375 -2.62075
thorax -1.58088 2.03345 -1.98507
lowerneck -5.53611 4.20075 4.60054
upperneck -5.88618 5.5683 -4.065
head -0.653498 2.85804 -1.98068
rclavicle 7.95139e-016 -1.51076e-014
rhumerus -0.728216 -7.70703 -49.1924
rradius 117.85
rwrist -17.631
rhand -38.407 -2.42538
rfingers 7.12502
rthumb -11.4318 -32.0937
lclavicle 7.95139e-016 -1.51076e-014
lhumerus -1.36155 13.433 34.3024
lradius 114.855
lwrist -9.75978
lhand -36.7761 18.6138
lfingers 7.12502
lthumb -9.85859 48.363
rfemur -37.9652 -11.9805 26.3936
rtibia 64.4529
rfoot -18.9288 -7.17831
rtoes -40.4895
lfemur -32.0123 -16.8449 -18.0451
ltibia 52.101
lfoot -23.0144 7.41753
ltoes -24.3534
405
root 23.5644 14.5462 1.30738 183.829 16.0657 -177.869
lowerback 24.7186 0.42993 -2.57194
upperback 10.8591 2.22508 -2.70418
thorax -1.69174 2.05414 -2.04139
lowerneck -6.11307 4.12086 4.30632
upperneck -4.57221 5.42702 -3.55776
head -0.174458 2.76244 -1.73236
rclavicle 1.74931e-014 -3.33958e-014
rhumerus -0.694752 -7.92835 -49.2459
rradius 118.022
rwrist -17.6131
rhand -38.4238 -2.40665
rfingers 7.12502
rthumb -11.448 -32.0741
lclavicle 1.74931e-014 -3.33958e-014
lhumerus -1.19999 13.7846 34.2218
lradius 114.853
lwrist -9.68734
lhand -36.9275 18.8742
lfingers 7.12502
lthumb -10.0047 48.6164
rfemur -39.3239 -12.2857 25.8074
rtibia 67.0105
rfoot -18.2691 -6.64053
rtoes -40.3088
lfemur -32.2527 -16.573 -17.604
ltibia 53.2878
lfoot -23.5602 7.54144
ltoes -25.229
406
root 23.6653 14.4854 1.30536 183.655 16.153 -177.666
lowerback 24.9977 0.409443 -2.54772
upperback 10.8989 2.22078 -2.7379
thorax -1.77898 2.06559 -2.10255
lowerneck -6.78606 4.04767 4.03937
upperneck -3.02398 5.28482 -3.11852
head 0.395493 2.66697 -1.5161
rclavicle -5.48646e-014 5.48646e-014
rhumerus -0.618303 -8.12413 -49.312
rradius 118.161
rwrist -17.6074
rhand -38.4362 -2.34587
rfingers 7.12502
rthumb -11.46 -32.0126
lclavicle -5.48646e-014 5.48646e-014
lhumerus -1.1312 14.0568 34.3218
lradius 114.856
lwrist -9.71911
lhand -37.0544 18.9097
lfingers 7.12502
lthumb -10.1272 48.646
rfemur -40.4307 -12.4039 25.0225
rtibia 69.1098
rfoot -17.8276 -7.05801
rtoes -39.3154
lfemur -32.4578 -16.3747 -17.0738
ltibia 54.4537
lfoot -24.2393 7.52695
ltoes -25.2626
407
root 23.7706 14.4263 1.30166 183.497 16.1727 -177.412
lowerback 25.2615 0.359189 -2.43512
upperback 10.9485 2.20034 -2.73698
thorax -1.84823 2.0708 -2.17133
lowerneck -7.49706 3.96946 3.82437
upperneck -1.3324 5.13238 -2.77433
head 1.02841 2.5688 -1.34705
rclavicle -2.38542e-014 1.59028e-015
rhumerus -0.517872 -8.29624 -49.3917
rradius 118.27
rwrist -17.6018
rhand -38.4501 -2.23333
rfingers 7.12502
rthumb -11.4733 -31.8994
lclavicle -2.38542e-014 1.59028e-015
lhumerus -1.09507 14.2589 34.4978
lradius 114.822
lwrist -9.76429
lhand -37.1452 18.6416
lfingers 7.12502
lthumb -10.2147 48.3736
rfemur -41.2886 -12.2923 23.9974
rtibia 70.6776
rfoot -17.5623 -8.15223
rtoes -37.5235
lfemur -32.6497 -16.2415 -16.4716
ltibia 55.5912
lfoot -24.958 7.44463
ltoes -24.9699
408
root 23.8802 14.3687 1.29637 183.354 16.1484 -177.16
lowerback 25.5027 0.299142 -2.32434
upperback 11.0016 2.16797 -2.70025
thorax -1.90448 2.0682 -2.19585
lowerneck -8.1852 3.85836 3.62986
upperneck 0.381979 4.9442 -2.54256
head 1.68266 2.45623 -1.22496
rclavicle -2.46493e-014 0
rhumerus -0.382863 -8.42483 -49.4537
rradius 118.349
rwrist -17.5929
rhand -38.4743 -2.09314
rfingers 7.12502
rthumb -11.4967 -31.7579
lclavicle -2.46493e-014 0
lhumerus -1.1256 14.4004 34.7213
lradius 114.779
lwrist -9.79779
lhand -37.2428 17.8699
lfingers 7.12502
lthumb -10.3089 47.5972
rfemur -41.9148 -11.9388 22.6827
rtibia 71.6803
rfoot -17.3825 -9.5338
rtoes -35.3807
lfemur -32.8368 -16.1826 -15.8532
ltibia 56.6969
lfoot -25.6405 7.40958
ltoes -24.8276
